#!OML:ASF F:\VICON\USERDATA\INSTALL\rory3\rory3.ASF
:FULLY-SPECIFIED
:DEGREES
3707
root -1.77668 17.3878 2.90159 12.9885 -28.6654 7.35273
lowerback 9.39597 -6.39788 -4.77054
upperback 2.26972 -8.85499 10.2025
thorax -0.40125 -4.68677 14.5825
lowerneck -28.552 5.4785 -2.72625
upperneck 24.2023 9.0053 -0.371508
head 12.6603 3.62618 1.97598
rclavicle -4.13472e-014 1.59028e-014
rhumerus 16.5267 23.4588 -39.606
rradius 75.1827
rwrist 49.8277
rhand -52.8665 -21.3747
rfingers 7.12502
rthumb -25.3378 -49.7115
lclavicle -4.13472e-014 1.59028e-014
lhumerus 62.9611 -45.0638 52.7558
lradius 42.9374
lwrist -20.8205
lhand -35.3761 28.5239
lfingers 7.12502
lthumb -8.50772 418.333
rfemur -42.708 6.65931 5.72716
rtibia 44.6486
rfoot -9.36969 13.1624
rtoes 11.0425
lfemur -11.2215 8.93084 -19.7451
ltibia 18.7136
lfoot -14.1912 32.4842
ltoes -17.3635
3708
root -1.75908 17.3883 2.91496 13.1055 -29.1948 7.32238
lowerback 9.0216 -6.82421 -4.4852
upperback 2.44814 -9.41638 10.0564
thorax 0.0786737 -5.00246 14.1727
lowerneck -28.4438 4.94632 -3.38566
upperneck 24.7965 8.26461 0.57097
head 12.8062 3.35301 2.31718
rclavicle -8.74653e-014 -8.90555e-014
rhumerus 17.7925 23.7711 -40.1443
rradius 74.5085
rwrist 49.3311
rhand -52.8098 -21.6449
rfingers 7.12502
rthumb -25.2835 -49.9894
lclavicle -8.74653e-014 -8.90555e-014
lhumerus 62.7526 -44.6361 52.2557
lradius 42.513
lwrist -21.7717
lhand -35.3308 28.7158
lfingers 7.12502
lthumb -8.464 418.526
rfemur -42.947 6.9905 5.57321
rtibia 44.5764
rfoot -9.1814 13.2526
rtoes 11.2743
lfemur -11.3153 9.25666 -19.915
ltibia 18.8582
lfoot -14.4599 32.6107
ltoes -17.1361
3709
root -1.74256 17.3863 2.92682 13.1525 -29.7317 7.3315
lowerback 8.70502 -7.03724 -4.15182
upperback 2.648 -9.68355 9.76048
thorax 0.422426 -5.14891 13.5623
lowerneck -28.2691 4.17405 -4.02566
upperneck 25.2688 7.06282 1.81066
head 12.9084 2.92993 2.68626
rclavicle 4.92986e-014 -9.54166e-015
rhumerus 18.2287 23.5606 -41.0361
rradius 73.9556
rwrist 49.1204
rhand -52.5614 -21.4711
rfingers 7.12502
rthumb -25.0455 -49.849
lclavicle 4.92986e-014 -9.54166e-015
lhumerus 63.2542 -44.6707 51.1657
lradius 42.0736
lwrist -22.7394
lhand -35.6613 29.0443
lfingers 7.12502
lthumb -8.78298 418.842
rfemur -43.1492 7.41094 5.35069
rtibia 44.5208
rfoot -9.01268 13.2852
rtoes 11.9314
lfemur -11.346 9.60355 -20.1091
ltibia 18.961
lfoot -14.7512 32.7258
ltoes -16.9079
3710
root -1.72482 17.3866 2.93624 13.2064 -30.1332 7.30982
lowerback 8.64166 -7.18547 -3.899
upperback 2.70975 -9.86149 9.5939
thorax 0.491174 -5.23428 13.2072
lowerneck -28.1973 3.55774 -4.40906
upperneck 26.0105 6.17378 2.40477
head 13.1938 2.56117 2.84123
rclavicle 5.32743e-014 -6.36111e-014
rhumerus 18.371 23.3425 -41.7557
rradius 73.3939
rwrist 49.0047
rhand -52.4968 -21.4091
rfingers 7.12502
rthumb -24.9837 -49.7956
lclavicle 5.32743e-014 -6.36111e-014
lhumerus 63.8543 -44.8783 50.1339
lradius 41.6627
lwrist -23.7755
lhand -35.966 29.3713
lfingers 7.12502
lthumb -9.07696 419.156
rfemur -43.3106 7.72294 5.19806
rtibia 44.4835
rfoot -8.95453 13.3274
rtoes 11.7846
lfemur -11.368 10.0007 -20.2594
ltibia 19.0142
lfoot -14.9669 32.6768
ltoes -16.564
3711
root -1.70503 17.3883 2.94705 13.2287 -30.6245 7.48993
lowerback 8.75231 -7.29946 -4.1364
upperback 2.63194 -10.0341 9.67878
thorax 0.452815 -5.32684 13.4711
lowerneck -28.5226 2.97274 -4.66848
upperneck 27.1302 5.57976 2.13249
head 13.7597 2.18577 2.71489
rclavicle -1.74931e-014 -3.18055e-014
rhumerus 18.8668 23.4574 -41.8241
rradius 72.8473
rwrist 48.4568
rhand -52.5271 -21.0365
rfingers 7.12502
rthumb -25.0127 -49.419
lclavicle -1.74931e-014 -3.18055e-014
lhumerus 64.2182 -44.8803 49.5382
lradius 41.4094
lwrist -24.4859
lhand -36.2525 29.9701
lfingers 7.12502
lthumb -9.35347 419.743
rfemur -43.603 7.95239 4.8549
rtibia 44.4727
rfoot -8.85503 13.4285
rtoes 11.5083
lfemur -11.4461 10.243 -20.6259
ltibia 19.0341
lfoot -15.1657 32.8365
ltoes -16.4603
